<svg width="305" height="214" viewBox="0 0 305 214" fill="none" xmlns="http://www.w3.org/2000/svg">
<path d="M297.266 139.267C277.611 181.634 220.332 212.287 152.739 212.287C85.1056 212.287 27.8056 181.602 8.18158 139.199" stroke="#231F20" stroke-width="1.42933"/>
<path d="M7.68225 75.8257C26.8183 32.8551 84.5222 1.63641 152.738 1.63641C220.853 1.63641 278.492 32.7657 297.712 75.6391" stroke="#231F20" stroke-width="1.42933"/>
<path d="M10.7597 107.837C10.7597 110.584 8.53574 112.807 5.79041 112.807C3.04907 112.807 0.825073 110.584 0.825073 107.837C0.825073 105.095 3.04907 102.872 5.79041 102.872C8.53574 102.872 10.7597 105.095 10.7597 107.837Z" fill="#231F20"/>
<path d="M304.247 107.837C304.247 110.584 302.023 112.807 299.278 112.807C296.537 112.807 294.313 110.584 294.313 107.837C294.313 105.095 296.537 102.872 299.278 102.872C302.023 102.872 304.247 105.095 304.247 107.837Z" fill="#231F20"/>
<path d="M90.1009 181.555C89.8543 181.5 89.6502 181.503 89.4889 181.56C89.2676 181.656 89.0169 181.839 88.7396 182.11L84.2103 186.76L84.0316 186.688L83.8529 180.05C83.8423 179.716 83.8236 179.506 83.7969 179.419C83.7623 179.298 83.6969 179.183 83.6023 179.076C83.5276 178.976 83.3809 178.872 83.1649 178.76L83.2369 178.583L84.8129 179.216L84.9769 185.347L89.1956 180.984L90.1729 181.378L90.1009 181.555Z" fill="#231F20"/>
<path d="M93.0079 186.943L92.8252 183.85L90.7052 186.136L93.0079 186.943ZM94.7932 190.471L93.1719 189.904L93.0212 187.355L90.4345 186.448L89.6199 187.339C89.4119 187.583 89.2905 187.755 89.2559 187.855C89.2199 187.956 89.2319 188.063 89.2919 188.172C89.3639 188.266 89.5585 188.391 89.8732 188.544L89.8092 188.727L87.7159 187.995L87.7785 187.812C88.0732 187.855 88.2759 187.855 88.3892 187.812C88.6065 187.706 88.9025 187.454 89.2785 187.05L93.5439 182.383L93.7159 182.443L94.0892 188.8C94.1359 189.315 94.2025 189.662 94.2892 189.844C94.3359 189.927 94.4092 190.016 94.5119 190.112C94.6145 190.186 94.7292 190.246 94.8559 190.29L94.7932 190.471Z" fill="#231F20"/>
<path d="M101.473 190.49L100.343 192.151L95.108 190.56L95.164 190.375L95.4186 190.454C95.704 190.539 95.936 190.511 96.1146 190.364C96.2186 190.268 96.328 190.031 96.444 189.651L97.7706 185.292C97.8986 184.87 97.9346 184.591 97.88 184.456C97.7866 184.271 97.6146 184.14 97.3626 184.066L97.108 183.987L97.164 183.804L99.092 184.391L97.4026 189.943C97.316 190.227 97.2826 190.416 97.3026 190.508C97.324 190.599 97.372 190.678 97.4493 190.742C97.5266 190.807 97.7786 190.904 98.208 191.034L98.6973 191.183C99.2413 191.35 99.624 191.422 99.8453 191.404C100.067 191.386 100.293 191.307 100.527 191.167C100.759 191.023 101.023 190.774 101.319 190.408L101.473 190.49Z" fill="#231F20"/>
<path d="M107.731 192.151L106.663 193.857L101.372 192.457L101.421 192.271L101.679 192.339C101.968 192.414 102.199 192.378 102.372 192.225C102.472 192.125 102.572 191.883 102.675 191.498L103.839 187.097C103.952 186.67 103.977 186.389 103.917 186.255C103.817 186.075 103.641 185.951 103.387 185.883L103.129 185.815L103.179 185.63L105.127 186.146L103.644 191.755C103.567 192.045 103.54 192.235 103.564 192.326C103.588 192.414 103.64 192.493 103.719 192.553C103.799 192.615 104.055 192.703 104.488 192.818L104.983 192.949C105.533 193.094 105.917 193.154 106.139 193.127C106.359 193.102 106.583 193.013 106.809 192.862C107.036 192.714 107.291 192.451 107.575 192.078L107.731 192.151Z" fill="#231F20"/>
<path d="M113.964 193.727L112.98 195.317L108.652 194.336L109.941 188.645C110.041 188.211 110.06 187.929 110.001 187.808C109.899 187.645 109.709 187.533 109.432 187.472L109.192 187.417L109.236 187.229L114.541 188.432L114.271 189.956L114.075 189.912C114.085 189.505 114.063 189.237 114.004 189.109C113.956 188.967 113.852 188.833 113.689 188.708C113.569 188.631 113.339 188.552 112.999 188.476L111.105 188.047L110.488 190.771L113.276 191.404L112.96 192.797L112.763 192.753C112.801 192.391 112.803 192.156 112.768 192.055C112.743 191.94 112.66 191.831 112.52 191.724C112.38 191.62 112.177 191.539 111.913 191.479L110.405 191.136L109.889 193.415C109.819 193.727 109.787 193.912 109.796 193.975C109.804 194.033 109.837 194.093 109.896 194.153C109.956 194.216 110.085 194.268 110.287 194.315L111.452 194.579C111.833 194.664 112.119 194.7 112.307 194.691C112.496 194.677 112.692 194.607 112.896 194.479C112.989 194.42 113.059 194.372 113.103 194.339C113.147 194.308 113.215 194.245 113.308 194.156L113.756 193.68L113.964 193.727Z" fill="#231F20"/>
<path d="M125.63 194.008C125.779 193.065 125.634 192.271 125.198 191.623C124.76 190.975 124.13 190.584 123.308 190.453L122.808 190.409C122.738 190.404 122.651 190.404 122.548 190.409C122.447 190.415 122.342 190.424 122.232 190.435L121.294 196.368C121.735 196.536 122.092 196.644 122.366 196.688C123.152 196.813 123.855 196.636 124.475 196.156C125.094 195.68 125.479 194.964 125.63 194.008ZM126.806 194.151C126.656 195.099 126.234 195.86 125.538 196.432C125.164 196.743 124.699 196.948 124.139 197.049C123.579 197.151 122.98 197.151 122.34 197.052C122.164 197.024 121.966 196.977 121.742 196.915C121.518 196.849 121.27 196.763 120.999 196.656C120.89 196.617 120.787 196.579 120.688 196.541C120.59 196.503 120.454 196.443 120.28 196.357L121.131 190.975C121.2 190.539 121.198 190.257 121.124 190.131C121.007 189.961 120.819 189.855 120.559 189.815L120.295 189.773L120.324 189.584L123.17 190.035C124.21 190.199 124.979 190.44 125.479 190.76C125.979 191.081 126.354 191.541 126.604 192.148C126.854 192.753 126.922 193.42 126.806 194.151Z" fill="#231F20"/>
<path d="M133.083 196.714L132.267 198.399L127.862 197.867L128.562 192.074C128.615 191.63 128.607 191.35 128.534 191.232C128.417 191.083 128.217 190.99 127.934 190.956L127.691 190.927L127.714 190.738L133.114 191.388L133.003 192.932L132.802 192.908C132.771 192.503 132.722 192.24 132.65 192.118C132.587 191.979 132.47 191.859 132.297 191.752C132.169 191.686 131.931 191.632 131.586 191.591L129.658 191.356L129.323 194.132L132.162 194.474L131.99 195.894L131.789 195.87C131.79 195.506 131.767 195.274 131.722 195.175C131.686 195.063 131.593 194.962 131.442 194.872C131.291 194.782 131.082 194.722 130.814 194.687L129.278 194.503L128.999 196.823C128.961 197.14 128.947 197.328 128.962 197.388C128.977 197.446 129.017 197.503 129.082 197.558C129.146 197.612 129.281 197.651 129.486 197.678L130.673 197.82C131.061 197.867 131.347 197.875 131.534 197.844C131.721 197.812 131.909 197.722 132.099 197.574C132.186 197.506 132.25 197.451 132.29 197.414C132.33 197.375 132.393 197.307 132.475 197.208L132.871 196.687L133.083 196.714Z" fill="#231F20"/>
<path d="M146.404 192.571L146.148 192.557C145.886 192.543 145.663 192.647 145.479 192.871C145.402 192.988 145.351 193.235 145.33 193.609L145.166 196.475C145.123 197.207 145.02 197.759 144.856 198.128C144.692 198.5 144.394 198.813 143.959 199.065C143.523 199.319 142.962 199.425 142.274 199.385C141.507 199.341 140.934 199.175 140.555 198.885C140.176 198.597 139.911 198.221 139.76 197.756C139.671 197.437 139.652 196.857 139.7 196.011L139.859 193.253C139.882 192.833 139.838 192.549 139.726 192.401C139.614 192.253 139.422 192.169 139.152 192.153L138.886 192.139L138.898 191.948L140.92 192.063L140.672 196.388C140.655 196.685 140.663 197.005 140.696 197.352C140.731 197.696 140.802 197.969 140.911 198.175C141.022 198.36 141.204 198.535 141.459 198.699L141.866 198.86C142.027 198.904 142.192 198.932 142.363 198.943C142.81 198.969 143.224 198.893 143.604 198.719C143.984 198.544 144.251 198.303 144.404 197.989C144.558 197.68 144.656 197.147 144.699 196.393L144.935 192.295L146.415 192.38L146.404 192.571Z" fill="#231F20"/>
<path d="M153.721 197.995C153.35 198.372 153.057 198.643 152.839 198.81C152.471 199.102 152.067 199.328 151.631 199.49C151.487 199.542 151.345 199.588 151.201 199.631C151.13 199.648 151.006 199.68 150.831 199.719C150.657 199.758 150.413 199.774 150.099 199.766C149.502 199.755 148.962 199.623 148.481 199.375C147.998 199.128 147.591 198.771 147.259 198.31C146.79 197.654 146.563 196.888 146.582 196.014C146.597 195.315 146.769 194.67 147.097 194.076C147.426 193.482 147.867 193.031 148.421 192.727C148.975 192.422 149.586 192.276 150.254 192.292C150.774 192.302 151.277 192.438 151.762 192.695C151.859 192.755 151.962 192.795 152.069 192.82C152.154 192.82 152.235 192.787 152.315 192.719L152.414 192.591L152.515 192.339L152.697 192.342L152.807 194.744L152.647 194.74C152.455 194.034 152.162 193.514 151.767 193.18C151.373 192.85 150.894 192.678 150.333 192.667C149.857 192.656 149.433 192.763 149.061 192.992C148.69 193.219 148.382 193.594 148.137 194.115C148.083 194.235 148.037 194.359 147.995 194.49C147.953 194.62 147.915 194.776 147.879 194.956C147.843 195.138 147.817 195.31 147.799 195.471C147.781 195.635 147.77 195.828 147.766 196.047C147.751 196.695 147.842 197.252 148.035 197.719C148.227 198.186 148.531 198.55 148.946 198.815C149.142 198.932 149.393 199.052 149.695 199.172C149.971 199.263 150.241 199.31 150.503 199.315L150.738 199.32C150.787 199.323 150.841 199.323 150.898 199.323C150.962 199.326 151.005 199.326 151.026 199.328L151.562 199.198C151.862 199.118 152.15 198.992 152.423 198.826C152.554 198.75 152.711 198.634 152.901 198.479C153.089 198.323 153.309 198.126 153.563 197.886L153.721 197.995Z" fill="#231F20"/>
<path d="M159.278 196.055C159.259 194.839 159.007 193.943 158.522 193.367C158.123 192.896 157.59 192.667 156.922 192.678C156.31 192.688 155.809 192.93 155.418 193.404C154.95 193.995 154.726 194.855 154.743 195.984C154.761 197.118 155.019 197.998 155.521 198.631C155.905 199.094 156.409 199.32 157.034 199.31C157.39 199.306 157.695 199.24 157.949 199.115C158.203 198.99 158.442 198.792 158.666 198.519C159.09 197.972 159.295 197.148 159.278 196.055ZM160.471 195.899C160.487 196.956 160.161 197.85 159.493 198.574C158.825 199.3 158.011 199.67 157.051 199.686C156.091 199.698 155.271 199.37 154.593 198.698C153.914 198.027 153.566 197.136 153.549 196.027C153.531 194.916 153.902 193.992 154.658 193.255C155.317 192.636 156.106 192.315 157.023 192.303C157.941 192.29 158.739 192.626 159.422 193.31C160.106 193.998 160.454 194.86 160.471 195.899Z" fill="#231F20"/>
<path d="M169.232 196.964L166.551 197.152L166.498 196.376L169.179 196.188L169.232 196.964Z" fill="#231F20"/>
<path d="M184.336 197.289L182.357 197.547L182.197 196.331L181.588 191.656L179.648 197.901L179.479 197.923L176.003 192.385L176.773 198.276L175.333 198.464L175.309 198.273L175.552 198.243C175.841 198.204 176.041 198.089 176.153 197.896C176.205 197.745 176.205 197.487 176.159 197.12L175.563 192.549C175.524 192.248 175.467 192.037 175.393 191.923C175.32 191.805 175.216 191.721 175.076 191.672C174.937 191.623 174.727 191.615 174.445 191.653L174.419 191.464L176.396 191.204L179.651 196.349L181.44 190.544L182.427 190.417L183.183 196.204C183.237 196.633 183.323 196.893 183.435 196.987C183.581 197.117 183.792 197.167 184.068 197.131L184.309 197.099L184.336 197.289Z" fill="#231F20"/>
<path d="M190.411 194.419L190.114 196.269L185.742 197.023L184.747 191.277C184.671 190.834 184.583 190.567 184.479 190.477C184.323 190.367 184.106 190.335 183.826 190.386L183.583 190.427L183.551 190.237L188.911 189.31L189.25 190.821L189.05 190.857C188.903 190.477 188.778 190.239 188.677 190.141C188.578 190.029 188.43 189.946 188.231 189.893C188.091 189.867 187.849 189.883 187.505 189.943L185.594 190.274L186.07 193.029L188.885 192.539L189.13 193.947L188.93 193.985C188.826 193.633 188.737 193.417 188.666 193.335C188.599 193.239 188.482 193.169 188.31 193.127C188.141 193.083 187.922 193.086 187.657 193.133L186.133 193.395L186.531 195.698C186.586 196.013 186.627 196.198 186.659 196.25C186.69 196.302 186.745 196.343 186.823 196.378C186.901 196.411 187.042 196.411 187.245 196.375L188.422 196.171C188.807 196.105 189.083 196.029 189.253 195.946C189.422 195.862 189.578 195.722 189.717 195.526C189.781 195.435 189.826 195.365 189.854 195.318C189.881 195.269 189.922 195.187 189.974 195.07L190.203 194.455L190.411 194.419Z" fill="#231F20"/>
<path d="M196.914 187.847L196.674 187.899C196.383 187.961 196.193 188.092 196.105 188.292C196.053 188.428 196.067 188.685 196.149 189.068L197.383 194.891L197.206 194.928L191.466 190.333L192.622 195.781L191.193 196.084L191.154 195.896L191.393 195.847C191.698 195.781 191.887 195.649 191.963 195.451C192.015 195.319 191.999 195.057 191.919 194.675L190.709 188.969L191.229 188.86L196.545 193.141L195.445 187.964L196.875 187.659L196.914 187.847Z" fill="#231F20"/>
<path d="M203.534 189.607C203.297 188.686 202.851 188.014 202.193 187.591C201.534 187.17 200.799 187.06 199.995 187.268L199.515 187.422C199.45 187.448 199.37 187.482 199.279 187.528C199.187 187.574 199.094 187.623 198.998 187.678L200.49 193.495C200.963 193.476 201.334 193.432 201.602 193.362C202.373 193.164 202.949 192.724 203.329 192.039C203.706 191.355 203.777 190.544 203.534 189.607ZM204.673 189.274C204.909 190.203 204.823 191.068 204.411 191.872C204.193 192.302 203.846 192.675 203.373 192.992C202.898 193.307 202.349 193.547 201.725 193.706C201.55 193.75 201.349 193.787 201.117 193.818C200.889 193.847 200.625 193.867 200.337 193.875C200.219 193.883 200.11 193.888 200.003 193.894C199.898 193.899 199.75 193.896 199.558 193.888L198.203 188.607C198.091 188.18 197.979 187.924 197.862 187.836C197.685 187.727 197.471 187.706 197.217 187.771L196.958 187.836L196.911 187.651L199.701 186.935C200.719 186.675 201.523 186.591 202.11 186.688C202.695 186.782 203.222 187.058 203.693 187.514C204.162 187.968 204.487 188.555 204.673 189.274Z" fill="#231F20"/>
<path d="M210.799 187.565C210.445 186.401 209.958 185.609 209.333 185.191C208.821 184.847 208.242 184.773 207.605 184.967C207.018 185.144 206.605 185.516 206.359 186.081C206.073 186.776 206.091 187.664 206.419 188.748C206.747 189.828 207.239 190.604 207.895 191.076C208.393 191.415 208.939 191.495 209.539 191.313C209.881 191.211 210.154 191.063 210.365 190.872C210.573 190.683 210.747 190.427 210.887 190.101C211.146 189.459 211.117 188.612 210.799 187.565ZM211.901 187.087C212.209 188.099 212.141 189.047 211.698 189.927C211.258 190.811 210.575 191.388 209.657 191.667C208.739 191.945 207.859 191.855 207.023 191.396C206.185 190.937 205.605 190.177 205.283 189.115C204.961 188.052 205.062 187.063 205.589 186.147C206.049 185.368 206.718 184.844 207.597 184.579C208.477 184.313 209.335 184.415 210.182 184.888C211.029 185.36 211.602 186.092 211.901 187.087Z" fill="#231F20"/>
<path d="M218.625 186.597L218.664 186.81C218.716 187.151 218.718 187.422 218.674 187.618C218.524 188.266 218.122 188.703 217.472 188.93L213.453 190.331L213.396 190.151L215.544 182.566L213.409 183.31C213.046 183.435 212.805 183.561 212.682 183.682C212.56 183.802 212.48 183.954 212.442 184.13C212.409 184.31 212.422 184.618 212.485 185.055L212.302 185.118L211.854 183.411L216.789 181.69L214.592 189.482L217.33 188.526C217.748 188.383 218.034 188.185 218.193 187.938C218.352 187.69 218.425 187.242 218.409 186.594L218.625 186.597Z" fill="#231F20"/>
<path d="M222.852 183.953L220.688 181.737L220.586 184.855L222.852 183.953ZM226.513 185.448L224.917 186.084L223.133 184.256L220.586 185.265L220.554 186.475C220.557 186.795 220.578 187.003 220.617 187.101C220.657 187.201 220.734 187.273 220.852 187.317C220.969 187.341 221.196 187.308 221.537 187.219L221.606 187.399L219.545 188.216L219.474 188.039C219.724 187.877 219.878 187.745 219.934 187.639C220.032 187.417 220.086 187.029 220.106 186.48L220.268 180.159L220.437 180.092L224.888 184.648C225.258 185.005 225.537 185.224 225.721 185.305C225.813 185.336 225.928 185.357 226.065 185.363C226.193 185.352 226.318 185.32 226.442 185.271L226.513 185.448Z" fill="#231F20"/>
<path d="M110.742 158.811H114.243L112.498 154.11L110.742 158.811ZM111.527 154.294C111.634 154.017 111.761 153.707 111.761 153.463C111.761 153.061 111.342 152.925 110.574 152.739V152.475H113.222L117.203 162.853H115.706L114.411 159.414H110.526L109.31 162.853H108.337L111.527 154.294Z" fill="#231F20"/>
<path d="M121.255 157.145H121.671C122.766 157.145 124.65 157.145 124.65 154.991C124.65 153.523 123.554 153.077 122.35 153.077C121.317 153.077 121.255 153.199 121.255 154.11V157.145ZM119.915 154.11C119.915 153.031 119.669 152.999 118.357 152.739V152.475H122.721C124.601 152.475 126.159 152.925 126.159 155.142C126.159 156.901 124.846 157.469 123.491 157.657L126.605 162.853H125.094L122.027 157.747H121.255V162.853H119.915V154.11Z" fill="#231F20"/>
<path d="M136.733 162.574C136.286 162.681 134.898 163.022 133.494 163.022C130.334 163.022 128.916 160.894 128.916 157.254C128.916 154.31 129.873 152.306 133.109 152.306C135.422 152.306 136.548 153.34 136.64 154.616H135.129C135.054 154.017 134.698 152.998 133.081 152.998C130.676 152.998 130.426 155.452 130.426 157.13C130.426 159.72 131.246 162.326 134.205 162.326C134.713 162.326 134.961 162.293 135.392 162.185V158.904C135.392 157.686 135.178 157.562 133.836 157.348V157.082H136.733V162.574Z" fill="#231F20"/>
<path d="M140.695 154.094C140.695 153.215 140.478 152.925 139.139 152.739V152.475H146.415L146.493 154.354H146.014C145.858 153.557 145.877 153.077 144.595 153.077H142.977C142.099 153.077 142.037 153.263 142.037 154.094V157.13H143.995C145.275 157.13 145.383 156.578 145.505 155.854H145.858V159.042H145.505C145.349 158.15 145.305 157.734 143.995 157.734H142.037V161.355C142.037 162.25 142.175 162.25 143.298 162.25H144.965C146.014 162.25 146.093 161.926 146.306 160.751H146.786L146.674 162.853H140.695V154.094Z" fill="#231F20"/>
<path d="M150.177 154.295C150.177 153.061 149.96 152.956 148.634 152.74V152.476H151.72L156.558 160.895H156.59V152.476H157.388V162.853H156.218L151.006 153.801H150.978V162.853H150.177V154.295Z" fill="#231F20"/>
<path d="M163.419 153.077H162.031C160.737 153.077 160.705 153.633 160.611 154.573H160.134L160.213 152.476H167.966L168.045 154.573H167.563C167.474 153.633 167.474 153.077 166.147 153.077H164.761V162.853H163.419V153.077Z" fill="#231F20"/>
<path d="M171.016 154.235C171.016 153.168 170.54 153.215 169.476 153.093V152.829L172.356 152.476V162.853H171.016V154.235Z" fill="#231F20"/>
<path d="M176.458 154.295C176.458 153.061 176.241 152.956 174.918 152.74V152.476H178.002L182.842 160.895H182.873V152.476H183.674V162.853H182.501L177.289 153.801H177.261V162.853H176.458V154.295Z" fill="#231F20"/>
<path d="M188.638 158.811H192.139L190.394 154.11L188.638 158.811ZM189.421 154.294C189.533 154.017 189.657 153.707 189.657 153.463C189.657 153.061 189.239 152.925 188.47 152.739V152.475H191.121L195.098 162.853H193.601L192.307 159.414H188.425L187.207 162.853H186.233L189.421 154.294Z" fill="#231F20"/>
<path d="M48.3464 115.449C48.3464 112.412 47.4984 109.977 45.8037 108.149C44.1091 106.328 41.9397 105.412 39.2944 105.412L37.6997 105.513C37.4744 105.539 37.2024 105.585 36.8864 105.649C36.573 105.717 36.241 105.797 35.905 105.887V125.035C37.373 125.356 38.5491 125.512 39.4331 125.512C41.9624 125.512 44.0797 124.605 45.7877 122.789C47.4931 120.981 48.3464 118.528 48.3464 115.449ZM52.1224 115.319C52.1224 118.381 51.1691 120.989 49.2704 123.139C48.2491 124.3 46.8837 125.175 45.1731 125.776C43.4664 126.377 41.5784 126.675 39.5211 126.675C38.9557 126.675 38.3024 126.636 37.5691 126.541C36.8304 126.451 36.0104 126.304 35.1037 126.099C34.7451 126.032 34.3957 125.963 34.0664 125.893C33.7397 125.828 33.2824 125.7 32.6904 125.521V108.129C32.6904 106.723 32.5451 105.841 32.2504 105.48C31.7944 105.003 31.1411 104.763 30.2971 104.763H29.4424V104.164H38.6237C41.9771 104.164 44.5224 104.54 46.2544 105.3C47.9877 106.06 49.4011 107.328 50.4864 109.111C51.5757 110.889 52.1224 112.959 52.1224 115.319Z" fill="#231F20"/>
<path d="M66.1251 123.119L65.1011 124.695C64.5571 125.397 63.9091 126.004 63.1597 126.505C62.4771 126.913 61.8064 127.119 61.1491 127.119C60.6504 127.119 60.2157 126.927 59.8544 126.539L59.5837 126.099C59.4464 125.761 59.3744 125.265 59.3744 124.631V108.136L59.2771 107.013C59.2077 106.219 59.0931 105.737 58.9371 105.581C58.5331 105.036 57.8637 104.763 56.9397 104.763H56.1251V104.164H62.5491V124.177C62.5491 124.424 62.6397 124.641 62.8224 124.824C62.9344 124.888 63.0944 124.948 63.2957 124.992L63.7384 124.891C63.9197 124.801 64.3731 124.396 65.1011 123.681L66.1251 122.501V123.119Z" fill="#231F20"/>
<path d="M84.0235 117.884L80.2461 108.832L76.2875 117.884H84.0235ZM93.1275 126.675L87.6408 126.679L84.4955 119.131H75.7541L74.2341 122.69C73.8821 123.647 73.7061 124.3 73.7061 124.64C73.7061 124.98 73.8541 125.291 74.1488 125.566C74.4648 125.77 75.1808 125.936 76.2915 126.076V126.675H69.2155V126.067C70.1475 125.884 70.7608 125.674 71.0528 125.418C71.5981 124.874 72.2235 123.8 72.9235 122.188L80.8475 103.638H81.4275L89.2501 122.394C89.9315 123.892 90.4955 124.874 90.9488 125.327C91.1755 125.53 91.4941 125.722 91.9008 125.907C92.2835 126.018 92.6955 126.076 93.1275 126.076V126.675Z" fill="#231F20"/>
<path d="M125.895 126.675H119.513V122.768V107.732L110.828 126.675H110.287L101.569 107.732V126.675H96.9518V126.076H97.7358C98.6692 126.076 99.3505 125.793 99.7838 125.225C100.011 124.771 100.127 123.953 100.127 122.771V108.064C100.127 107.089 100.032 106.403 99.8505 106.003C99.6665 105.608 99.3678 105.301 98.9465 105.085C98.5265 104.869 97.8612 104.763 96.9518 104.763V104.164H103.284L111.481 121.787L119.513 104.164H122.684V122.775C122.684 124.157 122.839 125.023 123.16 125.36C123.568 125.836 124.219 126.076 125.108 126.076H125.895V126.675Z" fill="#231F20"/>
<path d="M156.808 110.703L149.969 94.3113L142.788 110.703H156.808ZM173.349 126.675L163.393 126.687L157.659 112.951H141.909L139.131 119.461C138.473 121.183 138.145 122.35 138.145 122.965C138.145 123.582 138.416 124.139 138.951 124.63C139.524 124.999 140.82 125.31 142.833 125.554V126.675H130.007V125.565C131.695 125.233 132.804 124.847 133.34 124.397C134.323 123.406 135.457 121.457 136.728 118.542L151.093 84.934H152.141L166.321 118.905C167.556 121.614 168.584 123.379 169.403 124.203C169.817 124.566 170.392 124.915 171.129 125.245C171.829 125.454 172.569 125.554 173.349 125.554V126.675Z" fill="#231F20"/>
<path d="M203.332 104.763H202.553C201.599 104.763 200.917 105.045 200.516 105.613C200.264 105.997 200.139 106.817 200.139 108.063V127.04H199.553L184.683 108.939V126.675H180.028V126.076H180.816C181.816 126.076 182.503 125.793 182.869 125.225C183.121 124.839 183.244 124.024 183.244 122.775V104.164L184.924 104.167L198.695 121.056V104.164H203.332V104.763Z" fill="#231F20"/>
<path d="M226.184 115.449C226.184 112.412 225.333 109.977 223.641 108.149C221.945 106.328 219.776 105.412 217.129 105.412L215.536 105.513C215.313 105.539 215.038 105.585 214.725 105.649C214.406 105.717 214.077 105.797 213.736 105.887V125.035C215.208 125.356 216.384 125.512 217.266 125.512C219.8 125.512 221.918 124.605 223.624 122.789C225.328 120.981 226.184 118.528 226.184 115.449ZM229.953 115.319C229.953 118.381 229.005 120.989 227.102 123.139C226.085 124.3 224.721 125.175 223.012 125.776C221.3 126.377 219.417 126.675 217.361 126.675C216.792 126.675 216.136 126.636 215.398 126.541C214.666 126.451 213.848 126.304 212.94 126.099C212.576 126.032 212.234 125.963 211.904 125.893C211.578 125.828 211.117 125.7 210.528 125.521V108.129C210.528 106.723 210.378 105.841 210.085 105.48C209.63 105.003 208.977 104.763 208.132 104.763H207.277V104.164H216.458C219.812 104.164 222.358 104.54 224.089 105.3C225.825 106.06 227.236 107.328 228.324 109.111C229.412 110.889 229.953 112.959 229.953 115.319Z" fill="#231F20"/>
<path d="M254.16 121.017L252.221 126.675H238.053V108.065C238.053 106.633 237.916 105.751 237.649 105.411C237.216 104.979 236.557 104.763 235.653 104.763H234.877V104.164H252.221L252.457 109.096H251.817C251.563 107.833 251.304 107.021 251.031 106.66C250.781 106.253 250.361 105.912 249.768 105.643C249.343 105.484 248.569 105.408 247.461 105.408H241.264V114.316H250.383V118.857H249.741C249.6 117.707 249.447 116.989 249.261 116.699C249.103 116.36 248.768 116.08 248.26 115.856C247.744 115.635 247.061 115.519 246.2 115.519H241.264V122.931C241.264 123.943 241.3 124.543 241.367 124.723C241.439 124.905 241.581 125.065 241.805 125.212C242.036 125.36 242.477 125.433 243.14 125.433H246.947C248.193 125.433 249.105 125.351 249.689 125.177C250.259 125.011 250.827 124.653 251.371 124.111C251.623 123.861 251.801 123.668 251.917 123.532C252.031 123.396 252.196 123.159 252.425 122.816L253.479 121.017H254.16Z" fill="#231F20"/>
<path d="M273.395 103.638V111.441H272.776C272.647 110.008 272.291 108.829 271.725 107.897C271.229 106.961 270.477 106.25 269.481 105.749C269.021 105.498 268.551 105.305 268.067 105.166C267.579 105.03 267.071 104.965 266.552 104.965C265.395 104.965 264.443 105.328 263.692 106.052C262.944 106.733 262.565 107.517 262.565 108.401C262.565 109.014 262.807 109.654 263.281 110.31C263.919 111.082 265.551 112.185 268.185 113.614C269.367 114.201 270.26 114.702 270.875 115.112C271.559 115.518 272.1 115.893 272.508 116.233C273.233 116.777 273.815 117.48 274.247 118.329C274.676 119.177 274.889 120.05 274.889 120.937C274.889 122.636 274.233 124.106 272.917 125.344C271.603 126.578 269.901 127.2 267.813 127.2C267.565 127.2 267.311 127.19 267.032 127.181C266.761 127.17 266.412 127.129 265.977 127.064L263.839 126.434C262.772 126.089 262.093 125.916 261.795 125.916C261.523 125.916 261.293 125.997 261.119 126.161C261.004 126.345 260.889 126.688 260.777 127.2H260.169V119.469H260.777C261.049 121.081 261.416 122.285 261.883 123.065C262.345 123.852 263.1 124.542 264.143 125.128C265.185 125.656 266.295 125.916 267.473 125.916C268.831 125.916 269.923 125.548 270.739 124.81C271.556 124.072 271.959 123.217 271.959 122.233C271.959 121.646 271.805 121.101 271.485 120.601C271.213 120.057 270.739 119.508 270.056 118.969C269.808 118.764 268.631 118.056 266.523 116.856L264.072 115.424L262.411 114.264C261.593 113.588 260.977 112.87 260.569 112.121C260.169 111.369 259.956 110.521 259.956 109.564C259.956 107.998 260.569 106.614 261.795 105.41C262.384 104.818 263.1 104.376 263.935 104.081C264.776 103.788 265.64 103.638 266.525 103.638C267.109 103.638 267.672 103.696 268.208 103.806C268.739 103.924 269.124 104.018 269.365 104.098C269.601 104.176 269.925 104.318 270.332 104.524L271.659 104.932C271.909 104.932 272.123 104.849 272.304 104.694C272.487 104.581 272.647 104.228 272.781 103.638H273.395Z" fill="#231F20"/>
<path d="M140.858 79.9299L117.791 55.5059" stroke="#231F20" stroke-width="0.778667"/>
<path d="M138.462 81.646L107.894 67.7047" stroke="#231F20" stroke-width="0.778667"/>
<path d="M137.505 84.8544L67.8952 80.3584" stroke="#231F20" stroke-width="0.778667"/>
<path d="M138.471 87.7691L120.195 91.1264" stroke="#231F20" stroke-width="0.778667"/>
<path d="M162.046 79.9299L185.112 55.5059" stroke="#231F20" stroke-width="0.778667"/>
<path d="M164.443 81.646L195.011 67.7047" stroke="#231F20" stroke-width="0.778667"/>
<path d="M165.401 84.8544L235.009 80.3584" stroke="#231F20" stroke-width="0.778667"/>
<path d="M164.435 87.7691L182.708 91.1264" stroke="#231F20" stroke-width="0.778667"/>
<path d="M125.589 33.1708C125.925 33.1428 126.263 33.0708 126.606 32.9561C127.151 32.7735 127.563 32.5441 127.843 32.2641C128.121 31.9855 128.294 31.6481 128.362 31.2521C128.427 30.8535 128.39 30.4361 128.243 29.9988C128.098 29.5668 127.893 29.2321 127.625 28.9948C127.358 28.7561 127.031 28.6241 126.647 28.5935C126.263 28.5628 125.683 28.6775 124.913 28.9375C124.733 28.9948 124.509 29.0788 124.238 29.1881L125.021 31.5281C125.097 31.7548 125.286 32.3028 125.589 33.1708ZM124.07 28.6815C124.31 28.6148 124.517 28.5508 124.695 28.4921C125.207 28.3215 125.59 28.1495 125.841 27.9775C126.094 27.8068 126.278 27.6321 126.387 27.4521C126.498 27.2748 126.566 27.0588 126.594 26.8068C126.623 26.5535 126.589 26.2815 126.491 25.9881C126.317 25.4735 126.03 25.1561 125.625 25.0361C125.221 24.9175 124.702 24.9641 124.07 25.1735C123.718 25.2921 123.397 25.4361 123.105 25.6068C123.181 25.9615 123.338 26.4961 123.579 27.2108L124.07 28.6815ZM124.021 34.4028L123.923 34.1121C124.137 33.9001 124.253 33.7721 124.271 33.7321C124.29 33.6935 124.294 33.6281 124.285 33.5468C124.269 33.4135 124.202 33.1441 124.086 32.7361C123.971 32.3295 123.878 32.0201 123.809 31.8095L122.565 28.0868C122.429 27.6828 122.262 27.2135 122.061 26.6761C121.927 26.3401 121.829 26.1388 121.759 26.0695C121.713 26.0255 121.657 26.0028 121.59 25.9961C121.434 25.9828 121.138 26.0481 120.707 26.1881L120.574 25.7921C120.711 25.7548 120.886 25.7015 121.093 25.6335L122.391 25.2335L124.649 24.4175C125.253 24.2161 125.737 24.1228 126.106 24.1361C126.471 24.1521 126.794 24.2681 127.07 24.4841C127.347 24.7015 127.542 24.9801 127.658 25.3228C127.75 25.5948 127.779 25.8695 127.75 26.1455C127.719 26.4201 127.642 26.6775 127.517 26.9148C127.391 27.1508 127.235 27.3615 127.045 27.5455C126.858 27.7308 126.597 27.9281 126.265 28.1401C126.762 28.0241 127.174 27.9615 127.501 27.9508C127.829 27.9401 128.119 27.9881 128.379 28.0961C128.638 28.2055 128.861 28.3668 129.049 28.5841C129.235 28.8001 129.381 29.0628 129.483 29.3721C129.689 29.9828 129.682 30.5788 129.467 31.1668C129.253 31.7535 128.891 32.2548 128.383 32.6708C128.006 32.9801 127.518 33.2361 126.923 33.4335L125.113 33.9855C124.919 34.0481 124.555 34.1895 124.021 34.4028" fill="#231F20"/>
<path d="M131.697 26.6265C131.781 27.0305 131.904 27.4332 132.072 27.8345C132.239 28.2345 132.416 28.5732 132.601 28.8505C132.911 29.3185 133.267 29.6932 133.668 29.9719C134.069 30.2505 134.489 30.4305 134.931 30.5105C135.371 30.5919 135.837 30.5799 136.332 30.4785C137.017 30.3372 137.579 30.0479 138.016 29.6079C138.455 29.1719 138.736 28.6225 138.86 27.9652C138.984 27.3052 138.965 26.5799 138.803 25.7905C138.661 25.1119 138.444 24.5065 138.148 23.9719C137.965 23.6465 137.753 23.3612 137.511 23.1145C137.269 22.8705 137.003 22.6679 136.704 22.5105C136.409 22.3492 136.041 22.2399 135.607 22.1785C135.173 22.1185 134.723 22.1345 134.253 22.2319C133.576 22.3705 133.013 22.6452 132.564 23.0519C132.115 23.4599 131.823 23.9772 131.683 24.6012C131.545 25.2279 131.547 25.9039 131.697 26.6265ZM130.477 27.4292C130.34 26.7585 130.312 26.1145 130.397 25.5025C130.483 24.8905 130.712 24.3079 131.085 23.7559C131.461 23.2039 131.92 22.7519 132.464 22.3972C133.007 22.0425 133.66 21.7892 134.423 21.6305C135.125 21.4865 135.785 21.4545 136.4 21.5332C137.017 21.6132 137.541 21.7772 137.976 22.0279C138.412 22.2772 138.777 22.5732 139.069 22.9172C139.291 23.1732 139.488 23.4879 139.667 23.8599C139.841 24.2319 139.977 24.6412 140.069 25.0892C140.364 26.5239 140.128 27.8172 139.36 28.9692C138.593 30.1225 137.475 30.8505 136.005 31.1519C135.336 31.2905 134.691 31.3092 134.065 31.2119C133.443 31.1145 132.887 30.8919 132.399 30.5465C131.909 30.2012 131.499 29.7452 131.163 29.1772C130.829 28.6079 130.601 28.0265 130.477 27.4292" fill="#231F20"/>
<path d="M143.913 28.9664C144.397 29.0157 144.902 29.0211 145.431 28.9837C145.977 28.9451 146.454 28.8637 146.869 28.7384C147.279 28.6131 147.627 28.4544 147.913 28.2584C148.197 28.0651 148.467 27.7891 148.719 27.4304C148.974 27.0744 149.158 26.6251 149.269 26.0891C149.381 25.5517 149.418 25.0024 149.377 24.4384C149.321 23.6331 149.126 22.9504 148.797 22.3931C148.469 21.8344 148.001 21.4224 147.398 21.1557C146.797 20.8891 145.987 20.7931 144.971 20.8637C144.439 20.9024 143.899 20.9824 143.355 21.1037C143.357 21.3171 143.373 21.6944 143.402 22.2371L143.442 23.1811L143.627 25.7744L143.79 27.7877C143.817 28.0944 143.857 28.4877 143.913 28.9664ZM141.953 29.8197L141.931 29.5064C142.169 29.3464 142.369 29.2011 142.527 29.0717C142.533 28.7771 142.526 28.3651 142.506 27.8397C142.473 26.9464 142.443 26.3264 142.418 25.9797L142.231 23.3291C142.202 22.9051 142.157 22.4091 142.093 21.8397C142.05 21.4797 142.003 21.2597 141.953 21.1757C141.921 21.1211 141.87 21.0851 141.807 21.0637C141.659 21.0117 141.359 20.9997 140.905 21.0291L140.875 20.6117C141.51 20.5904 142.07 20.5597 142.555 20.5251C142.929 20.4997 143.437 20.4557 144.079 20.3944C144.723 20.3344 145.221 20.2904 145.577 20.2664C146.639 20.1904 147.502 20.2651 148.167 20.4904C148.833 20.7144 149.414 21.1304 149.91 21.7344C150.407 22.3397 150.687 23.1024 150.751 24.0197C150.801 24.6784 150.738 25.3037 150.566 25.8957C150.394 26.4877 150.142 27.0117 149.809 27.4691C149.474 27.9251 149.109 28.2944 148.711 28.5757C148.313 28.8557 147.89 29.0771 147.442 29.2371C146.994 29.3971 146.371 29.5051 145.574 29.5624C145.31 29.5811 144.953 29.5997 144.499 29.6157C143.91 29.6411 143.523 29.6624 143.342 29.6744C143.075 29.6931 142.614 29.7424 141.953 29.8197Z" fill="#231F20"/>
<path d="M152.153 29.213L152.17 28.7957C152.626 28.813 152.93 28.7904 153.074 28.733C153.138 28.709 153.182 28.6704 153.209 28.6144C153.26 28.5304 153.3 28.305 153.332 27.9357C153.385 27.365 153.42 26.8717 153.438 26.4544L153.59 23.1317C153.617 22.5424 153.638 21.9637 153.65 21.401C153.656 20.9877 153.634 20.7424 153.586 20.6637C153.542 20.5864 153.465 20.5264 153.354 20.485C153.248 20.4424 152.933 20.4064 152.418 20.373L152.437 19.957L154.292 20.081L156.258 20.137C157.201 20.1664 157.886 20.1904 158.313 20.2117C158.744 20.2304 159.148 20.273 159.526 20.3384C159.448 20.5824 159.389 20.7944 159.357 20.977C159.345 21.0144 159.284 21.465 159.176 22.3264L158.765 22.3077C158.79 21.865 158.78 21.461 158.737 21.0917C158.502 20.981 158.241 20.9024 157.957 20.8544C157.473 20.7704 156.988 20.7184 156.501 20.697C156.397 20.6917 156.165 20.6904 155.804 20.6904C155.444 20.6917 155.184 20.6944 155.026 20.701C154.989 21.181 154.954 21.629 154.926 22.049L154.801 24.241C155.308 24.2957 155.772 24.333 156.198 24.3517C156.716 24.3744 157.157 24.3717 157.524 24.3397C157.664 24.329 157.754 24.297 157.794 24.2477C157.837 24.197 157.88 24.0197 157.924 23.7184L157.985 23.265L158.376 23.281L158.369 23.405L158.274 24.7597L158.238 26.2797L157.781 26.257L157.784 25.8144C157.788 25.4917 157.769 25.2917 157.724 25.2104C157.676 25.1304 157.584 25.073 157.448 25.0344C157.201 24.9717 156.722 24.9237 156.012 24.8904C155.72 24.8784 155.308 24.869 154.772 24.8664C154.729 25.301 154.69 25.9437 154.65 26.7997C154.616 27.6024 154.597 28.2144 154.6 28.633C155.222 28.709 155.922 28.765 156.698 28.7984C157.248 28.825 157.642 28.825 157.878 28.7997C158.113 28.777 158.333 28.7277 158.537 28.6557C158.594 28.5224 158.653 28.3424 158.716 28.1144C158.83 27.733 158.905 27.4437 158.946 27.2517L159.382 27.2704C159.228 28.141 159.138 28.8664 159.113 29.4437C158.737 29.485 158.282 29.4917 157.749 29.4677L153.861 29.245C153.805 29.2424 153.236 29.2317 152.153 29.213Z" fill="#231F20"/>
<path d="M169.098 30.4969C168.407 30.6263 167.847 30.6983 167.418 30.7129C166.659 30.7343 165.955 30.6916 165.298 30.5836C164.307 30.4223 163.456 30.0836 162.747 29.5703C162.038 29.0543 161.528 28.4143 161.223 27.6463C160.916 26.8783 160.843 26.0183 160.999 25.0676C161.134 24.2289 161.402 23.5423 161.8 23.0049C162.2 22.4689 162.654 22.0503 163.168 21.7463C163.682 21.4423 164.18 21.2356 164.66 21.1303C165.394 20.9689 166.271 20.9703 167.288 21.1369C167.764 21.2183 168.258 21.3556 168.764 21.5463C169.274 21.7369 169.843 21.9783 170.476 22.2716C170.371 22.4796 170.29 22.6849 170.219 22.8903C170.152 23.0943 170.038 23.5183 169.872 24.1609L169.48 24.0983L169.568 23.3583C169.583 23.2463 169.592 23.1569 169.6 23.0863C169.608 23.0183 169.592 22.9236 169.56 22.8089C169.47 22.6356 169.307 22.4663 169.076 22.3023C168.663 22.0609 168.32 21.8916 168.044 21.7903C167.767 21.6863 167.435 21.6036 167.039 21.5383C166.22 21.4049 165.488 21.4649 164.836 21.7143C164.18 21.9636 163.65 22.3876 163.238 22.9863C162.824 23.5836 162.555 24.2676 162.431 25.0343C162.292 25.8809 162.347 26.6703 162.595 27.4036C162.843 28.1383 163.239 28.7343 163.784 29.1903C164.327 29.6476 165 29.9409 165.802 30.0716C166.183 30.1343 166.554 30.1569 166.919 30.1423C167.287 30.1263 167.6 30.0743 167.867 29.9863C167.932 29.8209 167.996 29.5489 168.058 29.1716L168.175 28.4569C168.236 28.0796 168.252 27.8543 168.226 27.7863C168.199 27.7143 168.1 27.6489 167.938 27.5889C167.771 27.5289 167.388 27.4409 166.782 27.3249L166.844 26.9316L168.847 27.3036C169.234 27.3676 169.638 27.4169 170.051 27.4556L170.038 27.7703L169.511 27.9743C169.386 28.4263 169.287 28.8423 169.224 29.2303C169.163 29.6156 169.122 30.0369 169.098 30.4969Z" fill="#231F20"/>
<path d="M174.109 28.5842L177.253 29.5335L176.837 25.3068L174.109 28.5842ZM170.144 31.2082L170.272 30.7828C170.603 30.8775 170.809 30.9282 170.899 30.9282C170.987 30.9308 171.079 30.9095 171.163 30.8655C171.253 30.8215 171.403 30.6842 171.611 30.4522C171.737 30.3215 172.183 29.8188 172.955 28.9442L175.581 25.8962C175.869 25.5588 176.493 24.8082 177.453 23.6415L177.857 23.7615L178.635 30.8282C178.761 31.9748 178.856 32.6988 178.917 33.0002C178.953 33.1695 179.013 33.2908 179.092 33.3655C179.175 33.4388 179.375 33.5282 179.704 33.6322L179.576 34.0562C178.94 33.8175 178.491 33.6602 178.229 33.5828L176.201 33.0375L176.331 32.6122C176.799 32.7442 177.087 32.8162 177.191 32.8242C177.297 32.8335 177.373 32.8242 177.42 32.7962C177.468 32.7668 177.501 32.7242 177.521 32.6642C177.547 32.5735 177.551 32.4468 177.539 32.2828L177.351 30.1415L173.735 29.0508L172.569 30.4495C172.364 30.7002 172.241 30.8922 172.197 31.0255C172.183 31.0828 172.185 31.1362 172.208 31.1842C172.236 31.2508 172.299 31.3108 172.385 31.3602C172.529 31.4402 172.795 31.5402 173.184 31.6628L173.051 32.0855C172.359 31.8348 171.837 31.6588 171.487 31.5522C171.085 31.4308 170.635 31.3148 170.144 31.2082Z" fill="#231F20"/>
<path d="M155.245 43.8251L164.047 46.2957L171.292 54.6064L151.625 81.1037H151.584L131.916 54.6064L139.157 46.2957L147.964 43.8251H155.245Z" fill="#231F20"/>
<path d="M155.245 43.8251L164.047 46.2957L171.292 54.6064L151.625 81.1037H151.584L131.916 54.6064L139.157 46.2957L147.964 43.8251H155.245Z" stroke="white" stroke-width="0.396"/>
<path d="M131.917 54.6069L143.762 57.2669H160.167L171.291 54.6069" stroke="white" stroke-width="0.282667"/>
<path d="M132.486 55.3817L143.762 57.9151H160.168L170.717 55.3951" stroke="white" stroke-width="0.282667"/>
<path d="M139.157 46.2951L146.453 47.6097H157.042L164.046 46.2951" stroke="white" stroke-width="0.282667"/>
<path d="M157.042 47.6096L160.168 57.2669L151.624 81.1043" stroke="white" stroke-width="0.282667"/>
<path d="M146.304 47.6096L143.684 57.2763L151.72 81.1043" stroke="white" stroke-width="0.282667"/>
<path d="M163.102 65.6051L166.347 56.4877L156.771 66.6584" stroke="white" stroke-width="0.282667"/>
<path d="M140.557 66.2698L137.26 56.4871L146.836 66.6591" stroke="white" stroke-width="0.282667"/>
<path d="M146.928 66.7528L151.963 58.0915L156.791 66.4915" stroke="white" stroke-width="0.282667"/>
<path d="M141.13 46.6629L137.348 48.4323L137.428 55.6363L145.682 50.0109L151.912 57.1549L157.59 49.1736L165.932 55.5723L165.898 48.4323L162.117 46.6629" stroke="white" stroke-width="0.282667"/>
<path d="M159.401 70.6525L154.752 72.3792H148.782L143.93 70.7619" stroke="white" stroke-width="0.282667"/>
<path d="M137.264 55.7978L144.476 54.2418" stroke="white" stroke-width="0.282667"/>
<path d="M165.983 55.7978L159.127 53.9204" stroke="white" stroke-width="0.282667"/>
<path d="M145.682 50.0114L151.584 47.6514L157.59 49.174" stroke="white" stroke-width="0.282667"/>
<path d="M132.005 54.9644L143.742 57.6111L160.113 57.5711L171.279 54.9484" stroke="white" stroke-width="0.556"/>
</svg>
